<svg width="61" height="72" viewBox="0 0 61 72" fill="none" xmlns="http://www.w3.org/2000/svg">
<g clip-path="url(#clip0_1_70)">
<path d="M18.8893 0.724521C18.5458 0.726733 18.2083 0.814451 17.9072 0.979755C16.9186 1.52772 16.5561 2.7978 17.1038 3.78569L19.3358 7.81601C13.9583 11.143 10.395 16.8261 10.395 23.3124V24.5176C9.36216 23.3293 7.84411 22.5791 6.14794 22.5791C3.04013 22.5791 0.516846 25.1023 0.516846 28.2099V45.5558C0.516846 48.6631 3.04036 51.1866 6.14794 51.1866C7.84411 51.1866 9.36216 50.4362 10.3948 49.2479V51.6777C10.3948 54.9535 13.0754 57.6338 16.3512 57.6338H17.8625V65.3502C17.8625 68.458 20.386 70.9812 23.4936 70.9812C26.6011 70.9812 29.1244 68.4577 29.1244 65.3502V57.6338H31.7391V65.3502C31.7391 68.458 34.2626 70.9812 37.3702 70.9812C40.4778 70.9812 43.0011 68.4577 43.0011 65.3502V57.6338H44.5125C47.7882 57.6338 50.4687 54.9535 50.4687 51.6777V49.2479C51.5014 50.4362 53.0197 51.1866 54.7158 51.1866C57.8234 51.1866 60.3467 48.6631 60.3467 45.5558V28.2099C60.3467 25.1023 57.8234 22.5791 54.7158 22.5791C53.0197 22.5791 51.5014 23.3293 50.4687 24.5176V23.5163V23.4589C50.4692 23.398 50.4687 23.3492 50.4687 23.3124C50.4687 16.8273 46.8973 11.1498 41.5217 7.82257L43.76 3.78569C44.3075 2.7978 43.9451 1.52772 42.9565 0.979755C42.6555 0.814451 42.318 0.726733 41.9745 0.724521C41.2444 0.71749 40.5279 1.10233 40.1506 1.78319L37.8101 6.01132C35.5217 5.16687 33.0317 4.70397 30.432 4.70397C27.8347 4.70397 25.34 5.16194 23.0534 6.00476L20.7132 1.78319C20.3356 1.10233 19.6193 0.717958 18.8893 0.724521Z" fill="white"/>
<path d="M6.14805 24.0458C3.82915 24.0458 1.98391 25.891 1.98391 28.2099V45.5558C1.98391 47.8747 3.82915 49.7199 6.14805 49.7199C8.46696 49.7199 10.3124 47.8747 10.3124 45.5558V28.2099C10.3124 25.891 8.46696 24.0458 6.14805 24.0458V24.0458ZM54.7162 24.0458C52.397 24.0458 50.5518 25.891 50.5518 28.2099V45.5558C50.5518 47.8747 52.397 49.7199 54.7162 49.7199C57.0351 49.7199 58.8803 47.8747 58.8803 45.5558V28.2099C58.8803 25.891 57.0351 24.0458 54.7162 24.0458V24.0458Z" fill="#A4C639"/>
<path d="M23.4938 43.8402C21.1749 43.8402 19.3295 45.6854 19.3295 48.0046V65.3502C19.3295 67.6691 21.1749 69.5144 23.4938 69.5144C25.8128 69.5144 27.658 67.6691 27.658 65.3502V48.0046C27.658 45.6854 25.8128 43.8402 23.4938 43.8402ZM37.3705 43.8402C35.0513 43.8402 33.2061 45.6854 33.2061 48.0046V65.3502C33.2061 67.6691 35.0513 69.5144 37.3705 69.5144C39.6894 69.5144 41.5346 67.6691 41.5346 65.3502V48.0046C41.5346 45.6854 39.6894 43.8402 37.3705 43.8402Z" fill="#A4C639"/>
<path d="M18.9018 2.19149C18.8034 2.19267 18.7068 2.21897 18.6213 2.26789C18.3243 2.43243 18.2268 2.77368 18.3916 3.07133L21.3253 8.37078C15.6815 11.3075 11.8692 16.8882 11.8617 23.2932H49.0019C48.9942 16.8882 45.1821 11.3073 39.5383 8.37078L42.4718 3.07157C42.6368 2.77391 42.539 2.43243 42.2421 2.26789C42.1566 2.21894 42.06 2.19264 41.9615 2.19149C41.7506 2.18914 41.5511 2.29461 41.4386 2.49758L38.4668 7.85422C36.0358 6.7761 33.3091 6.17071 30.4317 6.17071C27.5543 6.17071 24.8278 6.77586 22.3966 7.85422L19.4247 2.49758C19.374 2.40355 19.2985 2.32527 19.2063 2.27128C19.1141 2.2173 19.0089 2.1897 18.9021 2.19149H18.9018ZM11.8617 24.7599V51.6779C11.8604 52.2678 11.9757 52.8521 12.2009 53.3974C12.426 53.9426 12.7567 54.438 13.1738 54.8552C13.5909 55.2723 14.0864 55.6029 14.6316 55.828C15.1769 56.0532 15.7612 56.1684 16.3511 56.1671H44.5125C45.1024 56.1684 45.6868 56.0532 46.232 55.828C46.7773 55.6028 47.2727 55.2722 47.6899 54.8551C48.107 54.4379 48.4377 53.9425 48.6628 53.3972C48.888 52.852 49.0032 52.2676 49.0019 51.6776V24.7602H11.8617V24.7599Z" fill="#A4C639"/>
<path d="M21.8609 13.396C21.0131 13.396 20.3112 14.0977 20.3112 14.9455C20.3112 15.7934 21.0131 16.4951 21.8609 16.4951C22.7088 16.4951 23.4105 15.7934 23.4105 14.9455C23.4105 14.0977 22.7088 13.396 21.8609 13.396ZM39.0026 13.396C38.1546 13.396 37.4529 14.0977 37.4529 14.9455C37.4529 15.7934 38.1546 16.4951 39.0026 16.4951C39.8503 16.4951 40.5523 15.7934 40.5523 14.9455C40.5523 14.0977 39.8503 13.396 39.0026 13.396Z" fill="white"/>
</g>
<defs>
<clipPath id="clip0_1_70">
<rect width="60" height="70.5469" fill="white" transform="translate(0.516846 0.523438)"/>
</clipPath>
</defs>
</svg>