<svg width="18" height="18" viewBox="0 0 14 14" xmlns="http://www.w3.org/2000/svg" class="close">
  <path
    d="M13.2987 0.7102C13.1119 0.522948 12.8583 0.417715 12.5938 0.417715C12.3292 0.417715 12.0756 0.522948 11.8888 0.7102L6.99875 5.5902L2.10875 0.7002C1.92192 0.512948 1.66827 0.407715 1.40375 0.407715C1.13923 0.407715 0.885581 0.512948 0.69875 0.7002C0.30875 1.0902 0.30875 1.7202 0.69875 2.1102L5.58875 7.0002L0.69875 11.8902C0.30875 12.2802 0.30875 12.9102 0.69875 13.3002C1.08875 13.6902 1.71875 13.6902 2.10875 13.3002L6.99875 8.4102L11.8888 13.3002C12.2788 13.6902 12.9087 13.6902 13.2987 13.3002C13.6888 12.9102 13.6888 12.2802 13.2987 11.8902L8.40875 7.0002L13.2987 2.1102C13.6788 1.7302 13.6788 1.0902 13.2987 0.7102Z"
    fill="#fff">
  </path>
</svg>