<svg width="42" height="42" viewBox="0 0 42 42" fill="none" xmlns="http://www.w3.org/2000/svg">
<path d="M35.6981 4.55322H6.23902C5.53056 4.55322 4.95819 5.12559 4.95819 5.83405V35.2932C4.95819 36.0016 5.53056 36.574 6.23902 36.574H35.6981C36.4066 36.574 36.979 36.0016 36.979 35.2932V5.83405C36.979 5.12559 36.4066 4.55322 35.6981 4.55322ZM14.4564 31.8389H9.70527V16.557H14.4564V31.8389ZM12.0828 14.4677C11.5382 14.4677 11.0057 14.3061 10.5529 14.0036C10.1 13.701 9.74707 13.2709 9.53865 12.7677C9.33022 12.2645 9.27568 11.7108 9.38194 11.1766C9.4882 10.6424 9.75047 10.1518 10.1356 9.76665C10.5207 9.38152 11.0114 9.11925 11.5456 9.013C12.0798 8.90674 12.6335 8.96127 13.1366 9.1697C13.6398 9.37813 14.0699 9.73109 14.3725 10.1839C14.6751 10.6368 14.8366 11.1692 14.8366 11.7139C14.8326 13.2349 13.5998 14.4677 12.0828 14.4677ZM32.2439 31.8389H27.4968V24.4061C27.4968 22.633 27.4648 20.3555 25.0272 20.3555C22.5576 20.3555 22.1774 22.2847 22.1774 24.278V31.8389H17.4343V16.557H21.9892V18.6464H22.0533C22.6857 17.4456 24.2347 16.1768 26.5482 16.1768C31.3593 16.1768 32.2439 19.3428 32.2439 23.4575V31.8389V31.8389Z" fill="white"/>
</svg>
