<svg width="47" height="47" viewBox="0 0 47 47" fill="none" xmlns="http://www.w3.org/2000/svg">
<path d="M23.5 26.9036C27.7282 26.9036 31.1667 23.4651 31.1667 19.237C31.1667 15.0088 27.7282 11.5703 23.5 11.5703C19.2718 11.5703 15.8333 15.0088 15.8333 19.237C15.8333 23.4651 19.2718 26.9036 23.5 26.9036ZM23.5 15.4036C25.6141 15.4036 27.3333 17.1229 27.3333 19.237C27.3333 21.3511 25.6141 23.0703 23.5 23.0703C21.3859 23.0703 19.6667 21.3511 19.6667 19.237C19.6667 17.1229 21.3859 15.4036 23.5 15.4036Z" fill="black"/>
<path d="M22.3884 41.8804C22.7128 42.1121 23.1014 42.2366 23.5001 42.2366C23.8987 42.2366 24.2873 42.1121 24.6117 41.8804C25.1944 41.4683 38.889 31.5802 38.8334 19.2369C38.8334 10.7825 31.9545 3.90356 23.5001 3.90356C15.0457 3.90356 8.16673 10.7825 8.16673 19.2273C8.11115 31.5802 21.8057 41.4683 22.3884 41.8804ZM23.5001 7.7369C29.8423 7.7369 35.0001 12.8946 35.0001 19.2465C35.0403 27.7526 26.5897 35.3906 23.5001 37.8957C20.4123 35.3887 11.9598 27.7488 12.0001 19.2369C12.0001 12.8946 17.1578 7.7369 23.5001 7.7369Z" fill="white"/>
</svg>