<svg width="42" height="42" viewBox="0 0 42 42" fill="none" xmlns="http://www.w3.org/2000/svg">
<path d="M37.6449 10.249C36.4201 10.7774 35.0873 11.1576 33.7144 11.3057C35.1398 10.4589 36.2072 9.12108 36.7163 7.54326C35.3788 8.33893 33.9135 8.89687 32.3855 9.19233C31.7469 8.50959 30.9745 7.96569 30.1165 7.59452C29.2584 7.22335 28.3332 7.03286 27.3983 7.03493C23.6158 7.03493 20.5739 10.1009 20.5739 13.8634C20.5739 14.3917 20.6379 14.92 20.742 15.4284C15.0783 15.1322 10.027 12.4264 6.66884 8.28374C6.05694 9.32888 5.73629 10.5189 5.74023 11.73C5.74023 14.0995 6.94502 16.1889 8.78221 17.4177C7.69952 17.375 6.64219 17.0774 5.69621 16.5491V16.6332C5.69621 19.9513 8.04173 22.7011 11.1678 23.3335C10.5808 23.486 9.97701 23.564 9.37059 23.5657C8.9263 23.5657 8.50603 23.5216 8.08175 23.4616C8.94631 26.1673 11.4639 28.1326 14.4619 28.1967C12.1164 30.0339 9.17846 31.1146 5.9884 31.1146C5.41602 31.1146 4.88768 31.0945 4.33932 31.0305C7.36529 32.9718 10.9556 34.0925 14.8221 34.0925C27.3743 34.0925 34.2427 23.6937 34.2427 14.6679C34.2427 14.3717 34.2427 14.0755 34.2227 13.7793C35.5516 12.8067 36.7163 11.6019 37.6449 10.249Z" fill="white"/>
</svg>
